<?xml version="1.0" encoding="UTF-8"?><svg id="Layer_1" xmlns="http://www.w3.org/2000/svg" viewBox="0 0 58.56 98.59"><defs><style>.cls-1{fill:#ffa700;}.cls-2{fill:#ef305f;}.cls-3{fill:#ff8039;}.cls-4{fill:#36103d;}</style></defs><g><path class="cls-2" d="m57.02,84.73v6.16c0,3.4-2.76,6.16-6.16,6.16H7.72c-3.4,0-6.16-2.76-6.16-6.16v-6.16l6.16,6.16h43.13l6.16-6.16Z"/><path class="cls-4" d="m38.53,83.19h-18.49c-.85,0-1.54.69-1.54,1.54s.69,1.54,1.54,1.54h18.49c.85,0,1.54-.69,1.54-1.54s-.69-1.54-1.54-1.54Z"/><g><path class="cls-1" d="m57.02,7.7v77.02l-6.16,6.16H7.72l-6.16-6.16V7.7C1.56,4.3,4.32,1.54,7.72,1.54h43.13c3.4,0,6.16,2.76,6.16,6.16Z"/><path class="cls-3" d="m57.02,6.63v77.02l-6.16,6.16H7.72l-6.16-6.16v-.39l.77.77h43.13l6.16-6.16V.85c0-.11,0-.23-.02-.34,3.05.37,5.41,2.97,5.41,6.12Z"/><path class="cls-4" d="m26.21,9.24h6.16c.85,0,1.54-.69,1.54-1.54s-.69-1.54-1.54-1.54h-6.16c-.85,0-1.54.69-1.54,1.54s.69,1.54,1.54,1.54Z"/><path class="cls-4" d="m50.86,0H7.72C3.48,0,.02,3.46.02,7.7v9.24h-.02v3.08h.02v8.6l-.02-.02v4.36l.02.02v7.97l-.02-.02v4.36l.02.02v7.97l-.02.02v4.36l.02-.02v7.97l-.02.02v4.36l.02-.02v8.61h-.02v3.08h.02v9.24c0,4.25,3.46,7.7,7.7,7.7h43.13c4.25,0,7.7-3.45,7.7-7.7V7.7c0-4.25-3.46-7.7-7.7-7.7Zm4.62,90.89c0,2.55-2.07,4.62-4.62,4.62H7.72c-2.55,0-4.62-2.07-4.62-4.62v-2.44l3.53,3.53c.29.29.68.45,1.09.45h43.13c.41,0,.8-.16,1.09-.45l3.53-3.53v2.44Zm0-6.8l-5.26,5.26H8.36l-5.26-5.26V7.7c0-2.55,2.07-4.62,4.62-4.62h43.13c2.55,0,4.62,2.07,4.62,4.62v76.39Z"/></g></g><g><path class="cls-4" d="m32.86,34.39h-.02s-.01,0-.01,0c-.04,0-.08,0-.11.03h-.02s-.02,0-.02,0c-.04,0-.08,0-.11.03h-.02s-.02,0-.02,0c-.04,0-.08,0-.11.03h-.02s-.02,0-.02,0c-.04,0-.08,0-.11.03h-.02s-.02,0-.02,0c-.04,0-.08,0-.11.03h-.02s-.02,0-.02,0c-.04,0-.08,0-.11.03h-.02s-.01,0-.01,0c-.04,0-.08,0-.11.03h-.01s-.01,0-.01,0c-.04,0-.08-.01-.09.04-.07.21-.11.44-.16.66-.12.58-.23,1.15-.34,1.73-.07.4-.14.81-.2,1.21-.06.39-.11.77-.16,1.16-.04.35-.08.69-.12,1.04-.03.32-.07.64-.1.96,0,.04,0,.08,0,.12-.02.02-.02.04,0,.07-.02.11-.03.22-.04.33-.03.4-.07.8-.1,1.2-.02.22-.03.45-.05.67-.04.59-.08,1.17-.11,1.76-.02.39-.05.78-.06,1.17-.02.51-.04,1.03-.06,1.54,0,.1,0,.2,0,.3,0,.04-.01.08-.01.12,0,.05,0,.09,0,.14,0,.03-.02.07.03.11.01-.13.05-.24.04-.37.02-.14.05-.28.07-.42.06-.41.11-.81.17-1.22.05-.39.11-.78.16-1.16.05-.39.11-.79.16-1.18.05-.39.1-.78.16-1.16.06-.42.11-.84.17-1.25.06-.49.13-.99.19-1.48.04-.33.09-.66.13-.99.04-.32.08-.65.12-.97.07-.56.14-1.12.21-1.68.05-.45.1-.9.16-1.34.02-.16.04-.32.06-.48,0-.06.02-.07.08-.07.05,0,.1,0,.14,0,.36,0,.71,0,1.07-.02.05,0,.09,0,.14-.01.12.01.23,0,.34-.02.18-.01.36-.02.53-.04.34-.04.68-.08,1.02-.13.46-.07.91-.14,1.37-.22.4-.07.8-.15,1.2-.25.37-.1.72-.23,1.06-.41.41-.23.74-.54,1.01-.91.41-.56.7-1.17.82-1.86.09-.52.05-1.02-.14-1.5-.14-.35-.3-.68-.48-1.01-.08-.14-.16-.28-.23-.42-.03-.05-.05-.09-.07-.14-.03-.06-.01-.09.05-.09.07,0,.14,0,.21,0,.02.02.04.03.07.02.44.09.82.31,1.15.61.33.29.62.61.84.99.24.41.37.86.41,1.33.06.84-.09,1.64-.43,2.41-.2.47-.49.88-.84,1.25-.57.6-1.24,1.05-1.99,1.38-.11.05-.23.1-.34.15-.03,0-.05,0-.07.03-.08.01-.15.04-.22.08-.03,0-.06,0-.07.03-.01,0-.02,0-.03,0-.03,0-.06,0-.08.03h-.02s-.01,0-.01,0c-.03,0-.06,0-.08.03h-.01s-.01,0-.01,0c-.04,0-.08,0-.11.03-.01,0-.02,0-.04,0-.03,0-.06,0-.08.03h-.01s-.01,0-.01,0c-.04,0-.08,0-.11.03h-.01s-.01,0-.01,0c-.04,0-.08,0-.12.03h-.01s-.01,0-.01,0c-.05,0-.1,0-.15.03h-.02s-.02,0-.02,0c-.05,0-.1,0-.15.03h-.02s-.02,0-.02,0c-.05,0-.11,0-.15.03-.02,0-.04,0-.06,0-.06,0-.13,0-.18.03-.02,0-.04,0-.07,0-.03,0-.07,0-.09.02-.02-.02-.04-.01-.05,0-.11,0-.23.01-.34.02.13.02.25.07.38.06.06,0,.11,0,.17.01.01.01.03.02.04.01.09.02.19.02.28.02.02.02.05.02.07.01.06.02.13.02.19.02.09.03.18.04.27.02.24.02.48.02.72,0,.12.01.23,0,.34-.02.07,0,.13,0,.19-.01.05.01.09,0,.13-.02.05,0,.1,0,.15-.01.04,0,.07,0,.1-.02.05,0,.1,0,.15-.02.03,0,.05,0,.07-.02.05,0,.1,0,.15-.02.02,0,.03,0,.04-.01.05,0,.1,0,.14-.02.02,0,.03,0,.03-.01.04,0,.07,0,.11-.02.03,0,.05,0,.06-.02.03,0,.05,0,.08-.01.03,0,.05,0,.06-.02.06,0,.1-.02.16-.03.54-.16,1.06-.37,1.55-.67.93-.57,1.61-1.35,2.05-2.35.01-.03.02-.05.04-.08.01,0,.02,0,.03,0,.04.25.08.5.08.76,0,.51-.16.96-.5,1.35-.04.04-.07.09-.11.14-.02,0-.02,0-.03.03-.1.1-.2.2-.3.3-.02,0-.02.01-.03.03,0,0,0,0,0,0-.02,0-.03.01-.03.03-.06.05-.12.09-.18.14-.58.47-1.22.83-1.9,1.14-.08.04-.16.08-.24.11-.03,0-.05,0-.07.03-.04,0-.08.02-.11.04-.03,0-.05,0-.07.03-.04,0-.08.02-.11.04-.03,0-.05,0-.07.03-.08.01-.15.04-.21.08-.03,0-.05,0-.07.03-.08.01-.15.04-.22.08-.03,0-.05,0-.07.03-.11.02-.22.06-.32.11-.03,0-.06,0-.08.03-.01,0-.02,0-.03,0-.03,0-.06,0-.08.03-.01,0-.02,0-.03,0-.03,0-.06,0-.08.03-.01,0-.02,0-.03,0-.03,0-.06,0-.08.03h-.02s-.01,0-.01,0c-.03,0-.06,0-.08.03h-.02s-.01,0-.01,0c-.03,0-.06,0-.08.03h-.02s-.01,0-.01,0c-.03,0-.06,0-.08.03h-.01s-.01,0-.01,0c-.04,0-.08,0-.11.03,0,0,0,0,0,0-.04,0-.08,0-.11.03-.01,0-.02,0-.04,0-.03,0-.05,0-.07.03h-.02s-.02,0-.02,0c-.03,0-.06,0-.08.03h-.02s-.01,0-.01,0c-.04,0-.08,0-.1.03,0,0,0,0,0,0-.04,0-.08,0-.11.03-.01,0-.02,0-.04,0-.03,0-.06,0-.08.03h-.02s-.01,0-.01,0c-.04,0-.08,0-.1.03,0,0,0,0,0,0-.04,0-.08,0-.11.03h-.02s-.02,0-.02,0c-.03,0-.06,0-.08.03h-.01s-.01,0-.01,0c-.04,0-.08,0-.11.03-.01,0-.02,0-.03,0-.03,0-.06,0-.08.03h-.01s-.01,0-.01,0c-.04,0-.08,0-.11.03-.01,0-.02,0-.03,0-.04,0-.08,0-.1.03-.01,0-.03,0-.04,0-.04,0-.08,0-.11.03-.01,0-.02,0-.03,0-.04,0-.08,0-.11.03h-.02s-.01,0-.01,0c-.05,0-.1,0-.14.03-.01,0-.03,0-.04,0-.04,0-.08,0-.11.03h-.02s-.02,0-.02,0c-.05,0-.1,0-.14.03,0,0,0,0,0,0-.05,0-.1,0-.14.03-.01,0-.02,0-.04,0-.04,0-.08,0-.11.03h-.02s-.01,0-.01,0c-.1,0-.1,0-.18.06.03.02.07.05.11.04.1.06.2.1.3.14.01.02.03.03.05.03,0,0,.01.01.02,0,0,.02.02.02.04.02.09.05.19.1.29.13,0,.01.02.02.04.02,0,0,0,0,.02,0,.01.02.03.03.05.03,0,0,.01.01.02,0,0,.02.02.03.04.02.09.04.18.08.27.13,0,0,0,0,0,0h0s.05.03.08.03c0,.02.02.02.04.02,0,0,0,0,.02,0,.01.02.03.03.05.03,0,0,.01.01.02,0,0,.02.02.03.04.02.14.06.28.13.41.19.01.02.03.03.05.03,0,0,.01,0,.02,0,.01.02.03.03.05.03,0,0,.01.01.02,0,0,.02.02.02.04.02.14.06.28.13.41.19.01.02.03.03.06.03,0,0,0,0,.02,0,.01.02.03.03.05.03,0,0,.01.01.02,0,0,.02.02.03.05.02.16.08.32.15.48.23.01.02.03.03.06.03,0,0,.01,0,.02,0,.01.02.03.03.05.03,0,0,.01.01.02,0,0,.02.02.03.04.02.11.06.23.11.34.17.03.02.06.04.06.08,0,0-.01,0-.01,0h0c-.14.18-.29.34-.45.49-.02,0-.02,0-.03.03-.03.01-.06.03-.08.07-.02.01-.03.02-.05.04-.01,0-.02,0-.03.01-.02,0-.03.01-.03.03,0,0,0,0,0,0-.02,0-.03.01-.04.03-.01,0-.02,0-.03.02-.02,0-.03,0-.03.02,0,0,0,0,0,0-.02,0-.04.01-.04.03-.01,0-.02,0-.03.01-.02,0-.03,0-.04.02-.13.06-.26.12-.39.19-.02,0-.04,0-.05.02h-.01s-.01,0-.01,0c-.03,0-.06,0-.08.03h-.01s-.01,0-.01,0c-.04,0-.08,0-.11.03,0,0,0,0,0,0-.05,0-.1,0-.14.04-.01,0-.02,0-.04,0-.05,0-.1,0-.14.03h-.02s-.02,0-.02,0c-.26,0-.52.02-.77,0-.13,0-.27-.05-.4-.04h-.02s-.02,0-.02,0c-.04-.03-.09-.03-.15-.03h-.02s-.02,0-.02,0c-.03-.03-.07-.03-.11-.03h-.02s-.02,0-.02,0c-.03-.03-.07-.04-.11-.03,0,0,0,0,0,0-.03-.03-.06-.04-.1-.03h-.01s-.01,0-.01,0c-.02-.03-.05-.03-.08-.03,0,0,0,0,0,0-.03-.03-.06-.04-.1-.04,0,0,0,0,0,0-.02-.02-.04-.03-.07-.03,0,0-.02,0-.03,0-.01-.02-.02-.03-.04-.02,0,0-.02-.01-.03-.01-.02-.03-.04-.03-.08-.03-.02-.02-.04-.03-.07-.03q-.06-.05-.11,0c-.15.19-.27.41-.39.61-.77,1.26-1.42,2.58-1.97,3.95-.42,1.05-.77,2.12-1.05,3.21-.01.05-.02.1-.03.16-.01.02-.02.05,0,.05.2.01.4.04.6.02.13.03.26.01.39.02.14,0,.28,0,.43.01.03,0,.06,0,.08.02,0,.03-.04.04-.06.06-.53.39-1.05.8-1.56,1.22-.05.04-.09.08-.13.12-.02,0-.02,0-.03.02,0,0,0,0,0,0-.02,0-.03.01-.03.03-.16.11-.3.24-.45.37-.19.16-.38.32-.55.49-.02,0-.03.01-.03.03-.12.09-.22.19-.33.3-.02,0-.02.01-.03.03,0,0,0,0,0,0-.02,0-.03.01-.03.03-.16.12-.29.26-.43.4-.02,0-.03.01-.03.03,0,0,0,0,0,0-.02,0-.03.01-.03.03,0,0,0,0,0,0-.02,0-.03.01-.03.03-.15.12-.28.25-.4.39-.03.01-.07.01-.1,0-.03-.05-.08-.07-.12-.1-.47-.36-.95-.73-1.43-1.09-.04-.03-.09-.06-.13-.09,0-.02-.02-.03-.04-.03,0,0,0,0,0,0,0,0-.02-.01-.03-.02-.21-.17-.42-.34-.63-.51-.39-.32-.79-.65-1.18-.97-.03-.02-.06-.04-.09-.06,0-.02-.01-.03-.03-.03-.15-.14-.31-.28-.47-.4,0-.02-.01-.03-.03-.03-.07-.07-.14-.14-.22-.19,0-.02-.01-.03-.03-.03,0,0,0,0,0,0,0-.02-.01-.02-.03-.03-.01-.02-.04-.04-.04-.06,0-.03.03-.03.05-.03.18,0,.35-.02.53-.02.27,0,.54-.01.81-.02.05,0,.09,0,.14,0,.02,0,.03,0,.02-.02,0-.05-.02-.09-.03-.14-.37-1.11-.74-2.23-1.14-3.33-.22-.61-.44-1.23-.7-1.83-.35-.8-.8-1.54-1.32-2.23-.08-.1-.15-.21-.25-.3-.13.06-.25.12-.37.18-.03,0-.05,0-.07.03,0,0,0,0,0,0-.03,0-.06,0-.08.03-.01,0-.02,0-.03,0-.03,0-.06,0-.08.03h-.02s-.01,0-.01,0c-.04,0-.08,0-.11.03-.01,0-.03,0-.04,0-.04,0-.08,0-.11.03-.01,0-.02,0-.04,0-.05,0-.1,0-.15.03h-.02s-.02,0-.02,0c-.27,0-.54.01-.8-.03-.02,0-.03,0-.05,0-.01,0-.03,0-.04,0-.05-.04-.11-.04-.18-.03h-.01s-.02,0-.02,0c-.03-.03-.07-.03-.11-.03h-.02s-.02,0-.02,0c-.03-.03-.07-.04-.11-.03h-.02s-.02,0-.02,0c-.02-.02-.05-.03-.08-.03-.01,0-.02,0-.04,0-.03-.03-.07-.04-.11-.03,0,0,0,0,0,0-.03-.03-.07-.04-.11-.04,0,0,0,0,0,0-.02-.02-.04-.03-.07-.03,0,0-.02-.01-.03,0-.02-.03-.05-.03-.08-.03,0,0,0,0,0,0-.02-.02-.04-.03-.07-.03,0,0-.02-.01-.03,0-.02-.03-.05-.03-.08-.03-.17-.08-.33-.17-.5-.25,0-.02-.02-.03-.04-.03,0,0-.02-.01-.03-.01,0-.02-.02-.03-.05-.03-.02-.02-.04-.04-.07-.04,0-.02-.02-.03-.04-.03,0,0-.01-.01-.02-.01-.01-.02-.03-.03-.05-.03,0,0,0,0,0,0,0-.02-.02-.03-.03-.02,0,0-.02-.01-.03-.01,0-.02-.02-.03-.04-.03-.05-.05-.11-.08-.18-.11,0-.02-.02-.03-.03-.03,0,0-.02-.01-.03-.01,0-.02-.02-.03-.04-.03-.05-.05-.11-.08-.18-.11,0-.02-.02-.03-.04-.03,0,0-.02-.01-.03-.01,0-.02-.02-.03-.05-.03,0-.03,0-.06.03-.07.06-.02.12-.05.17-.07.06-.03.13-.06.19-.09.02,0,.04,0,.06-.03.06-.03.13-.05.19-.08.02,0,.04,0,.06-.03.08-.02.16-.06.24-.1,0,0,0,0,0,0h0c.21-.08.42-.18.62-.27.02,0,.04,0,.06-.03.06-.03.13-.05.19-.08.03,0,.04,0,.06-.03.08-.02.16-.06.24-.1,0,0,0,0,0,0h0c.21-.08.42-.18.62-.27.02,0,.04,0,.06-.03.08-.02.16-.06.24-.1,0,0,0,0,0,0h0c.08-.03.17-.06.24-.11,0,0,0,0,0,0h0c.13-.05.25-.11.37-.16.02,0,.04,0,.06-.03.14-.05.28-.1.41-.18.05,0,.09-.02.12-.07-.08,0-.15-.05-.23-.04-.01,0-.02,0-.04,0-.04-.03-.09-.04-.14-.03-.01,0-.02,0-.04,0-.04-.03-.09-.04-.14-.03h-.02s-.02,0-.02,0c-.03-.03-.07-.03-.11-.03-.01,0-.03,0-.04,0-.04-.03-.09-.04-.14-.03h-.02s-.02,0-.02,0c-.03-.03-.07-.03-.11-.03-.01,0-.02,0-.03,0-.03-.03-.07-.03-.11-.03-.01,0-.02,0-.04,0-.04-.04-.09-.04-.14-.04,0,0,0,0,0,0-.04-.04-.09-.04-.14-.04,0,0,0,0,0,0-.03-.03-.07-.04-.11-.03-.01,0-.02,0-.04,0-.03-.03-.07-.04-.11-.03h-.02s-.02,0-.02,0c-.03-.03-.07-.04-.11-.03h-.01s-.02,0-.02,0c-.03-.03-.07-.03-.11-.03,0,0,0,0,0,0-.03-.03-.07-.04-.11-.03h-.02s-.02,0-.02,0c-.03-.03-.07-.04-.11-.03,0,0,0,0,0,0-.03-.03-.07-.04-.11-.03h-.01s-.02,0-.02,0c-.02-.02-.05-.03-.08-.03-.01,0-.02,0-.04,0-.03-.03-.07-.04-.11-.03,0,0,0,0,0,0-.03-.03-.07-.04-.1-.03h-.01s-.01,0-.01,0c-.02-.02-.05-.03-.08-.03h-.01s-.02,0-.02,0c-.02-.02-.05-.03-.08-.03-.01,0-.02,0-.03,0-.02-.02-.04-.03-.07-.03-.01,0-.02,0-.03,0-.02-.02-.04-.03-.07-.03-.01,0-.02,0-.04,0-.02-.02-.04-.03-.07-.03-.01,0-.02,0-.03,0-.02-.02-.04-.03-.07-.03-.01,0-.02,0-.03,0-.02-.02-.04-.03-.07-.03,0,0-.02,0-.03,0-.02-.02-.04-.03-.07-.03,0,0-.02,0-.03,0-.02-.03-.05-.03-.08-.03h-.01s-.01,0-.01,0c-.02-.03-.05-.03-.08-.03,0,0,0,0,0,0-.03-.03-.06-.04-.1-.04,0,0,0,0,0,0-.02-.02-.04-.03-.07-.03,0,0-.02-.01-.03,0-.02-.03-.05-.03-.08-.03,0,0,0,0,0,0-.03-.03-.06-.04-.1-.04,0,0,0,0,0,0-.02-.02-.04-.03-.07-.03,0,0-.02-.01-.03,0-.02-.03-.05-.03-.08-.03,0,0,0,0,0,0-.02-.02-.04-.03-.07-.03,0,0-.02-.01-.03,0-.02-.03-.05-.03-.08-.03,0,0,0,0,0,0-.02-.02-.04-.03-.07-.03-.03-.02-.07-.04-.11-.04-.02-.02-.04-.03-.07-.03,0,0-.02-.01-.03,0-.02-.03-.05-.03-.08-.03,0,0,0,0,0,0-.02-.02-.04-.03-.07-.03,0,0-.02-.01-.03,0-.01-.02-.02-.03-.04-.02-.06-.04-.13-.07-.2-.08-.01-.02-.03-.03-.05-.02,0,0-.02-.01-.03,0-.02-.03-.05-.03-.08-.03-.05-.04-.11-.06-.17-.07-.01-.02-.03-.03-.05-.03,0,0-.02-.01-.03,0,0-.02-.02-.03-.04-.03,0,0-.02-.01-.03,0,0-.02-.02-.03-.04-.02-.15-.08-.3-.16-.46-.22,0-.02-.02-.03-.04-.03,0,0-.02-.01-.03-.01,0-.02-.02-.03-.04-.03,0,0-.02-.01-.03-.01,0-.02-.02-.03-.04-.03-.07-.04-.13-.09-.21-.11,0-.02-.02-.03-.04-.03,0,0-.02-.01-.03-.01,0-.02-.02-.03-.04-.03-.02-.02-.04-.04-.07-.04,0-.02-.02-.03-.04-.02,0,0-.02-.01-.03-.01,0-.02-.02-.03-.04-.03-.02-.01-.05-.03-.07-.04,0-.02-.02-.03-.04-.03,0,0-.01-.01-.02-.01-.01-.02-.03-.03-.05-.03,0,0,0,0,0,0,0-.02-.02-.03-.03-.03,0,0-.02-.01-.03-.01,0-.02-.02-.03-.05-.03,0,0,0,0,0,0,0-.02-.02-.03-.03-.03,0,0-.01-.01-.03-.01,0-.02-.03-.03-.05-.03-.04-.05-.09-.08-.15-.11,0-.02-.01-.03-.03-.03,0,0-.01-.01-.02-.01-.02-.01-.03-.02-.05-.04-.02-.03-.05-.05-.08-.06,0-.02-.01-.02-.03-.03-.02-.02-.04-.03-.06-.05-.01-.01-.03-.02-.04-.04-.04-.04-.07-.08-.11-.11-.16-.15-.3-.32-.43-.49,0-.02-.01-.04-.03-.04,0,0,0-.01,0-.02-.25-.45-.26-.93-.17-1.42.03-.14.07-.27.11-.41,0,0,.02-.01.04-.03,0,.05,0,.09.01.14,0,.04,0,.08.01.12,0,.05.02.09.03.14.01.04.02.08.04.12.02.04.04.09.06.13,0,0,0,.01,0,.01h.01c.01.05.03.1.07.13,0,0,0,0,0,0h0c.03.08.08.15.14.21,0,0,0,0,0,0,0,.01,0,.02.02.02,0,.01,0,.02.02.02.1.14.22.26.36.37,0,.02.01.02.03.02,0,0,0,.01.01.01,0,0,0,.01,0,.01h.01s.07.08.12.1c0,0,.02.01.03.02,0,0,.01.02.02.02,0,0,0,0,0,0,.31.23.64.42.99.57,0,0,0,0,0,0h0c.1.05.2.1.31.13.01.02.03.03.06.02.04.02.08.03.12.05.01.02.03.03.06.02.07.03.15.07.23.08.02.02.03.03.06.02.02,0,.03,0,.05.01,0,0,0,0,0,0h0s.06.03.09.03c0,0,0,.01,0,.01h.01s.05.03.09.03c0,0,0,.01,0,.01h.01s.05.02.09.02c0,0,0,.01,0,.01h.01s.06.02.09.03c0,0,0,0,0,0h.01s.06.02.09.02c.02.02.03.03.06.02.02,0,.03,0,.05.01.01.01.03.03.05.02.03,0,.06.01.08.02.02.02.04.03.06.02.02,0,.03,0,.05.01.02.02.03.03.05.02.03,0,.06.01.08.02.02.02.04.03.06.02.03,0,.05.01.08.02.02.02.04.03.07.02.02,0,.03,0,.05.01.01.01.03.02.05.01.04.02.08.03.12.03,0,0,.01.01.01.01h.02s.07.03.12.02c0,0,.01.01.01.01h.01s.06.02.09.02c.03.02.06.03.09.02.02,0,.04,0,.06.01.02.02.05.03.08.02.03,0,.06.01.09.02.03.02.06.03.09.02.03,0,.06.01.09.02.03.02.06.03.09.02.03,0,.06,0,.08.01.03.02.06.03.1.02.03,0,.06,0,.08.01.03.02.06.03.09.02.03,0,.06,0,.09.01.04.02.08.03.13.03.03,0,.06,0,.08.01.03.02.06.03.09.02.04.02.08.02.12.02.03.02.06.03.09.02.04.02.08.02.12.02.04.02.08.03.13.02.04,0,.08,0,.12.01.04.02.08.03.13.02.04,0,.08,0,.12.01.04.02.08.03.13.02.05.02.1.02.16.02.05.03.11.03.16.02.05.02.1.02.16.01.06.03.13.03.2.02.04,0,.09,0,.13.01.15.03.29.03.44.03.08,0,.15,0,.23,0,.02,0,.03-.01.03-.03,0-.02-.02-.02-.04-.03,0,0,0,0,0,0,0-.02-.02-.03-.04-.03-.12-.08-.24-.14-.38-.19-.01-.02-.03-.03-.05-.03,0,0-.02-.01-.03,0-.02-.03-.05-.03-.08-.04-.04-.04-.09-.06-.15-.07-.02-.02-.04-.03-.07-.03,0,0-.02-.01-.03,0-.02-.03-.05-.03-.08-.03-.02-.02-.05-.03-.08-.03-.02-.02-.04-.03-.07-.03,0,0-.02-.01-.03,0-.02-.03-.05-.03-.08-.03-.02-.02-.04-.03-.07-.03-.02-.02-.04-.03-.07-.03,0,0-.02-.01-.03,0-.02-.03-.05-.03-.08-.03-.02-.02-.04-.03-.07-.03-.02-.02-.04-.03-.07-.03,0,0-.02-.01-.03,0,0-.02-.02-.03-.04-.02-.03-.02-.07-.04-.11-.04-.02-.02-.04-.03-.07-.03,0,0-.02-.01-.03,0,0-.02-.02-.03-.04-.02-.06-.04-.13-.08-.2-.08-.01-.02-.03-.03-.05-.02,0,0-.02-.01-.03,0-.02-.03-.05-.03-.08-.03-.02-.02-.04-.03-.08-.03-.02-.02-.04-.03-.07-.03,0,0-.02-.01-.03,0,0-.02-.02-.03-.04-.02-.06-.04-.12-.07-.18-.08-.02-.02-.04-.03-.07-.03,0,0-.02-.01-.03,0,0-.02-.02-.03-.04-.02,0,0-.02-.01-.03-.01-.02-.03-.05-.03-.08-.03-.07-.05-.15-.09-.24-.11-.01-.02-.03-.03-.05-.03,0,0-.02-.01-.03,0,0-.02-.02-.03-.04-.02,0,0-.02-.01-.03-.01,0-.02-.02-.03-.04-.02-.25-.12-.5-.24-.75-.37,0-.02-.02-.03-.04-.02,0,0-.02-.01-.03-.01,0-.02-.02-.03-.04-.03,0,0-.02-.01-.03-.01,0-.02-.02-.03-.04-.03-.06-.05-.13-.09-.21-.11,0-.02-.02-.03-.04-.03,0,0-.01-.01-.03-.01-.01-.02-.03-.03-.05-.03-.05-.05-.11-.08-.18-.11,0-.02-.02-.03-.03-.03,0,0-.02-.01-.03-.01,0-.02-.02-.03-.05-.03,0,0,0,0,0,0,0-.02-.02-.03-.03-.03,0,0-.01-.01-.03-.01,0-.02-.02-.03-.05-.03-.01-.01-.03-.02-.04-.03,0-.01-.01-.02-.03-.02-.01,0-.02-.01-.03-.02,0-.02-.02-.03-.04-.03-.01-.01-.03-.02-.04-.03,0-.02-.01-.03-.03-.03-.02-.02-.04-.03-.07-.05,0-.02-.02-.03-.04-.04-.03-.04-.07-.08-.11-.1,0-.02-.01-.03-.03-.03,0,0,0,0,0,0,0-.02-.01-.03-.03-.03-.06-.06-.13-.13-.19-.19,0-.02-.01-.02-.03-.03,0,0,0,0,0,0,0-.02-.01-.03-.03-.03-.12-.16-.25-.31-.37-.47-.07-.09-.14-.19-.2-.29,0-.02-.01-.04-.03-.05-.03-.05-.05-.11-.08-.16-.21-.38-.36-.77-.43-1.2-.1-.64-.02-1.25.3-1.82.02-.04.04-.07.06-.11,0,0,.01,0,.01,0h0s.05-.07.06-.1c0,0,.01,0,.01,0h0s.05-.06.06-.1c.01,0,.02-.01.02-.03,0,0,.01,0,.01-.02,0,0,0,0,0,0h0c.08-.09.15-.18.23-.26.32-.33.69-.6,1.09-.82.3-.17.6-.3.92-.41.02,0,.04-.02.07,0,0,.05-.05.07-.08.1-.29.31-.55.64-.75,1.01-.19.35-.33.72-.38,1.12-.05.43,0,.85.15,1.26.11.28.25.54.44.77,0,0,0,0,0,0h.01s0,.02.01.02c0,.02,0,.03.02.03.02.05.06.09.1.12,0,0,0,0,0,0h0s0,.02.01.02c0,0,.01.02.02.03,0,0,0,.01,0,.01,0,.02.01.03.03.03.09.13.21.24.33.35.37.34.78.63,1.21.88.86.5,1.77.89,2.72,1.19.19.06.39.11.58.16.03,0,.07,0,.11.01,0,.01.02.02.03.01.04.02.09.03.14.02,0,.01.02.02.04.01.05.02.09.02.14.02.02.02.04.03.07.02.05.02.09.02.14.02.02.02.04.03.07.02.06.02.12.02.18.02.02.02.04.03.07.02.07.02.14.02.22.02.03.02.07.03.1.02.09.02.17.02.26.02.11.03.23.03.35.02.23.02.46.02.69,0,.13.01.25,0,.38-.02.11.01.22-.02.34-.02.07,0,.08.01.09.08.04.28.07.55.11.83.04.31.08.62.12.94.04.32.09.65.13.97.06.42.11.83.17,1.25.04.3.08.6.12.9.04.32.09.64.13.95.05.41.11.82.16,1.24.04.32.09.63.13.95.04.31.08.62.12.94.05.38.1.75.15,1.13.06.42.11.85.17,1.27.05.4.11.8.16,1.2.03.22.06.45.09.67,0,.04,0,.08.03.12,0,.17.03.33.07.49.02-.16.02-.33,0-.49,0-.12,0-.24,0-.36-.02-.48-.04-.96-.06-1.44-.02-.33-.04-.65-.06-.98-.01-.21-.02-.43-.04-.64-.02-.25-.03-.5-.05-.75-.03-.37-.06-.73-.09-1.1-.01-.16-.03-.32-.04-.48-.03-.36-.07-.72-.1-1.08-.03-.3-.05-.6-.09-.9-.04-.36-.08-.72-.12-1.08-.03-.29-.06-.59-.1-.88-.05-.38-.1-.75-.16-1.13-.06-.43-.13-.87-.2-1.3-.06-.41-.13-.82-.19-1.23-.02-.13-.04-.26-.06-.39-.01-.06,0-.13-.06-.18-.03-.03-.07-.03-.12-.03h-.01s-.02,0-.02,0c-.03-.03-.07-.03-.11-.03h-.02s-.02,0-.02,0c-.03-.03-.07-.03-.11-.03h-.02s-.02,0-.02,0c-.03-.03-.07-.03-.11-.03-.01,0-.02,0-.04,0-.03-.03-.07-.03-.11-.03h-.04s-.07-.04-.11-.04c-.01,0-.02,0-.03,0-.03-.03-.07-.04-.11-.03h-.02s-.02,0-.02,0c-.03-.03-.07-.04-.11-.03h-.01s-.02,0-.02,0c-.03-.03-.07-.03-.11-.03h-.01s-.01,0-.01,0c-.02-.03-.05-.03-.08-.03h-.02s-.02,0-.02,0c-.03-.03-.07-.04-.11-.03h-.01s-.01,0-.01,0c-.02-.02-.05-.03-.08-.03-.01,0-.02,0-.04,0-.03-.03-.07-.04-.11-.03h-.01s-.01,0-.01,0c-.02-.02-.05-.03-.08-.03h-.02s-.02,0-.02,0c-.03-.03-.07-.04-.11-.03,0,0,0,0,0,0-.03-.03-.07-.04-.11-.03h-.01s-.01,0-.01,0c-.02-.02-.05-.03-.08-.03h-.01s-.02,0-.02,0c-.02-.02-.05-.03-.08-.03-.01,0-.02,0-.03,0-.03-.03-.07-.04-.11-.03,0,0,0,0,0,0-.03-.03-.07-.04-.11-.03,0,0,0,0,0,0-.03-.03-.07-.04-.11-.03,0,0,0,0,0,0-.03-.03-.07-.04-.11-.04,0,0,0,0,0,0-.03-.03-.07-.04-.11-.04,0,0,0,0,0,0-.03-.03-.07-.04-.11-.04,0,0,0,0,0,0-.03-.03-.07-.04-.11-.04,0,0,0,0,0,0-.02-.02-.04-.03-.07-.03-.01,0-.02,0-.03,0-.02-.02-.04-.03-.07-.03-.1-.05-.21-.09-.32-.11-.02-.02-.04-.03-.07-.03-.1-.05-.21-.09-.32-.11-.02-.02-.04-.03-.07-.03-.07-.04-.14-.07-.22-.08-.02-.02-.04-.03-.07-.03-.07-.04-.14-.07-.21-.08-.02-.02-.04-.03-.07-.03-.15-.06-.3-.12-.44-.18-.4-.16-.79-.32-1.17-.51-.35-.17-.68-.36-.99-.6-.18-.14-.35-.3-.48-.5-.17-.25-.27-.52-.27-.83,0-.44.06-.87.17-1.3.02-.09.03-.19.08-.27.05,0,.04.04.05.07.16.4.34.78.54,1.16.16.3.38.53.65.72.32.23.67.4,1.03.55.32.13.65.23.98.32.02,0,.05,0,.07,0,0,.01.01.02.03,0,.03.02.07.03.11.03,0,.01.02.02.03.01.03.02.07.03.11.02,0,.01.02.02.03,0,.09.03.19.06.29.06,0,.01.02.02.03.01.05.03.09.03.14.03,0,.01.02.02.03.01.05.02.09.03.14.02,0,.01.02.02.03.01.05.02.1.03.15.02.02.02.04.03.07.02.05.02.09.02.14.02.02.02.04.03.07.02.05.02.1.02.14.02.02.02.04.03.07.02.06.02.12.02.18.02.02.02.04.03.07.02.05.02.1.02.15.02.03.02.06.03.1.02.07.02.14.02.21.02.02.02.04.03.07.02.07.02.14.02.22.02.03.02.07.03.1.02.08.02.17.02.25.02.03.02.07.03.1.02.08.02.17.02.26.02.04.03.09.03.13.02.02,0,.03.01.05.01.46.03.91.05,1.37.08.07,0,.13,0,.2,0,.22.03.44.03.67.02.03,0,.06,0,.09,0,.43,0,.86,0,1.3,0,.03,0,.06,0,.09,0,.18.01.35.01.53-.02.08,0,.17,0,.25,0,.25-.01.51-.03.76-.05.1,0,.21,0,.31-.02.08,0,.15,0,.23-.01.08,0,.16,0,.24-.02.06,0,.13,0,.19-.01.04.01.08,0,.11-.02.1,0,.19,0,.28-.02.04.01.07,0,.11-.02.08,0,.17,0,.25-.02.03.01.05,0,.07-.01.08,0,.17,0,.25-.02.03.01.05,0,.07-.01.07,0,.15,0,.22-.02.03.01.05,0,.07-.01.06,0,.12,0,.18-.02.03,0,.05,0,.07-.02.06,0,.12,0,.18-.02.02,0,.03,0,.04-.01.06,0,.12,0,.17-.02.03,0,.05,0,.07-.02.05,0,.1,0,.14-.02.02,0,.03,0,.04-.01.06,0,.12,0,.17-.03.02,0,.03,0,.04-.01.05,0,.1,0,.14-.02.02,0,.03,0,.04-.01.05,0,.09,0,.14-.02.02,0,.03,0,.04-.01.05,0,.1,0,.14-.03.02,0,.02,0,.03-.01.07,0,.14-.02.21-.04.53-.13,1.05-.28,1.56-.5.31-.14.61-.3.87-.51.3-.23.51-.53.64-.88.13-.33.21-.67.22-1.02,0-.08,0-.17.01-.25,0,0,0,0,.01,0,.01,0,.02,0,.03,0,.24.3.43.63.51,1.01.08.39.04.77-.12,1.13-.11.23-.24.44-.4.63-.03.04-.06.08-.08.11-.02,0-.03.01-.03.03-.13.13-.27.27-.4.4-.02,0-.03.01-.03.03-.11.08-.22.16-.33.24-.36.24-.75.42-1.15.58-.19.07-.37.15-.56.22-.03,0-.05,0-.07.03,0,0,0,0,0,0-.04,0-.08,0-.11.04,0,0,0,0,0,0-.04,0-.08,0-.1.04-.08,0-.15.03-.22.07-.04,0-.08,0-.11.03,0,0,0,0,0,0-.04,0-.08,0-.11.03,0,0,0,0,0,0-.04,0-.08,0-.11.03-.01,0-.02,0-.03,0-.03,0-.06,0-.08.03h-.02s-.01,0-.01,0c-.03,0-.06,0-.08.03-.05,0-.09.01-.13.04-.04,0-.08,0-.11.03h-.02s-.02,0-.02,0c-.03,0-.06,0-.08.03h-.02s-.01,0-.01,0c-.04,0-.08,0-.11.03-.01,0-.02,0-.04,0-.03,0-.05,0-.07.03h-.02s-.02,0-.02,0c-.03,0-.06,0-.08.03h-.01s-.01,0-.01,0c-.04,0-.08,0-.11.03h-.02s-.02,0-.02,0c-.03,0-.06,0-.08.03h-.01s-.01,0-.01,0c-.04,0-.08,0-.11.03h-.02s-.02,0-.02,0c-.04,0-.08,0-.11.03-.01,0-.02,0-.04,0-.03,0-.06,0-.08.03h-.02s-.01,0-.01,0c-.04,0-.08,0-.11.03-.01,0-.02,0-.03,0-.03,0-.06,0-.08.03h-.01s-.01,0-.01,0c-.04,0-.08,0-.11.03h-.02s-.01,0-.01,0c-.04,0-.08,0-.11.03h-.02s-.02,0-.02,0c-.04,0-.08,0-.11.03-.01,0-.02,0-.04,0-.03,0-.06,0-.08.03h-.01s-.01,0-.01,0c-.04,0-.08,0-.11.03h-.01s-.01,0-.01,0c-.04,0-.08,0-.11.03Z"/><path class="cls-4" d="m21.24,56.72c.08,0,.15,0,.23.01.06.02.13.03.2.02.04,0,.08,0,.12.01.04.02.08.03.13.02.03,0,.05,0,.08.01.02.01.03.03.06.01.03,0,.06.01.09.02.01.01.03.03.05.01.03.02.05.02.09.02.02.02.04.03.06.02.02,0,.03,0,.05.01,0,0,0,0,0,0h0c.05.03.11.05.17.06,0,0,0,0,0,0h0s.05.02.07.03c.01.02.03.03.05.03,0,0,.01.01.02,0,.01.02.03.03.05.02.01,0,.03.01.04.02,0,.01.02.02.03.02,0,0,.01.01.02.01,0,0,0,0,0,0,.04.02.09.05.13.07,0,.02.02.02.03.02,0,0,0,.01.02.01,0,0,0,0,0,0h0s.06.04.09.06c0,0,.02.01.03.02,0,0,.01.01.02.02,0,0,0,0,0,0,.1.1.19.19.29.29,0,0,0,0,0,0,0,.01,0,.02.02.02,0,.01,0,.02.02.02,0,0,0,.01,0,.01,0,.02.01.03.03.03.19.29.33.6.42.93.06.23.08.46.11.7,0,.02,0,.03,0,.05-.02.04-.02.07,0,.1,0,.4,0,.8,0,1.2,0,.27,0,.53,0,.8-.02.05-.02.09,0,.14,0,.1-.04.19-.03.29-.02.02-.02.04,0,.07-.03.13-.05.26-.08.38-.09.36-.23.69-.45.98-.01.02-.02.04-.04.06-.02,0-.03.02-.04.04-.07.07-.14.14-.21.21-.01.01-.03.02-.04.04-.01,0-.02,0-.03.02,0,0-.02.02-.03.02-.01.01-.03.02-.04.03-.02,0-.04.01-.04.03-.01,0-.02,0-.03.01-.02,0-.03,0-.03.03-.11.06-.21.12-.32.18-.03,0-.06,0-.08.03-.01,0-.02,0-.03,0-.03,0-.05,0-.07.03,0,0,0,0,0,0-.04,0-.08,0-.1.04,0,0,0,0,0,0-.04,0-.08,0-.11.03,0,0,0,0,0,0-.04,0-.08,0-.11.03h-.02s-.01,0-.01,0c-.05,0-.1,0-.14.03-.01,0-.03,0-.04,0-.05,0-.1,0-.14.03h-.02s-.02,0-.02,0c-.06,0-.13,0-.19,0-.18.03-.37.03-.55.03-.98,0-1.96,0-2.95,0-.06,0-.13,0-.19-.01-.05-.13-.09-.27-.15-.4-.16-.42-.33-.84-.49-1.27-.01-.04-.02-.08-.08-.08-.04.01-.04.04-.01.06-.02.03-.02.07-.02.1,0,.53,0,1.05,0,1.58-.05,0-.09.01-.14.01-.62,0-1.25,0-1.87,0-.05,0-.11,0-.16-.02,0-.07,0-.14,0-.21,0-2.31,0-4.61,0-6.92,0-.05,0-.09,0-.14,0-.19.06-.26.25-.32.07,0,.14,0,.21,0,1.82,0,3.63,0,5.45,0,.12,0,.24,0,.36,0Zm-.35,5.63c.06.01.12.01.17-.02.12,0,.22-.03.33-.07.21-.08.35-.22.43-.43.07-.19.1-.38.1-.57,0-.52,0-1.03,0-1.55,0-.13-.02-.26-.04-.39-.08-.39-.3-.6-.69-.66-.13-.02-.27-.04-.41-.04-1.13,0-2.25,0-3.38,0-.04,0-.07,0-.11,0-.09,0-.14.06-.15.15,0,.05,0,.09,0,.14,0,1.08,0,2.16,0,3.24,0,.06,0,.12.01.18,0,.02,0,.03.03.02.06,0,.12,0,.18,0,1.12,0,2.24,0,3.36,0,.06,0,.12,0,.18,0Z"/><path class="cls-4" d="m33.12,61.55c-.19.15-.4.26-.61.36-.03,0-.05,0-.07.03-.01,0-.02,0-.03,0-.03,0-.06,0-.08.03h-.02s-.02,0-.02,0c-.04,0-.08,0-.11.03h-.02s-.02,0-.02,0c-.05,0-.1,0-.14.03h-.02s-.02,0-.02,0c-.07,0-.15,0-.22.03h-.02s-.02,0-.02,0c-.16,0-.33,0-.49,0-.19,0-.38,0-.56,0-.03,0-.07,0-.09.03,0,.03.01.06.03.08.4.39.72.85,1.07,1.27.18.22.36.45.54.68.04.05.1.11.07.19-.08,0-.15,0-.23,0-.73,0-1.46,0-2.19,0-.33-.45-.66-.91-.99-1.36-.51-.7-1.02-1.4-1.53-2.09-.05-.06-.08-.13-.14-.18-.01-.02-.03-.03-.05-.02-.02.01-.02.03-.02.06,0,.03,0,.06,0,.09,0,1.17,0,2.34,0,3.51-.05,0-.09.01-.14.01-.62,0-1.25,0-1.87,0-.05,0-.11,0-.16-.02,0-.07,0-.14,0-.21,0-2.31,0-4.61,0-6.92,0-.05,0-.09,0-.14,0-.19.06-.26.25-.32.06,0,.12,0,.18,0,1.98,0,3.96,0,5.94,0,.04,0,.07,0,.11,0,.08.02.15.02.23.01.06.02.13.03.2.02.05,0,.1.01.14.02.02.02.04.03.07.02.03,0,.05,0,.08.01.02.02.04.03.06.02.03,0,.05.01.08.02,0,0,0,.01,0,.01h.01s.06.02.09.02c0,0,0,0,0,0h0s.07.03.11.05c.61.25.99.7,1.14,1.33.07.27.1.54.1.81,0,.24,0,.47,0,.71,0,.27-.04.54-.11.81-.07.28-.19.54-.38.76-.02.02-.03.04-.04.06-.02,0-.03.01-.03.03,0,0,0,0,0,0-.02,0-.03.01-.03.03,0,0,0,0,0,0-.02,0-.03.01-.03.03,0,0,0,0,0,0-.02,0-.03.01-.03.03Zm-5.93-2.89s-.06.05-.06.1c0,.05,0,.09,0,.14,0,.41,0,.83,0,1.24,0,.09,0,.18,0,.27,0,.02,0,.05.03.06.05,0,.11,0,.16,0,.58,0,1.16,0,1.75,0,.58,0,1.15,0,1.73,0,.09,0,.19.01.28-.03.33-.05.46-.17.52-.49.05-.25.03-.49.02-.74,0-.05-.02-.11-.03-.16-.04-.14-.11-.26-.25-.33-.08-.04-.17-.08-.27-.07-.09-.05-.19-.03-.28-.03-1.13,0-2.26,0-3.38,0-.05,0-.1,0-.14,0-.02,0-.04.02-.06.03Z"/><path class="cls-4" d="m38.76,62.26c-.28.28-.57.56-.83.86-.02,0-.03.01-.03.03,0,0,0,0,0,0-.02,0-.03.01-.03.03,0,0,0,0,0,0-.02,0-.03.01-.03.03,0,0,0,0,0,0-.02,0-.03.01-.03.03-.29.29-.59.59-.86.9-.02,0-.03.01-.03.03,0,0,0,0,0,0-.02,0-.03.01-.03.03,0,0,0,0,0,0-.02,0-.02,0-.03.03-.03.03-.06.05-.08.08-.81,0-1.61,0-2.42,0-.07,0-.14,0-.21-.02,0-.05.03-.08.06-.12.05-.05.1-.11.15-.16.02,0,.03-.01.03-.03,0,0,0,0,0,0,.02,0,.02-.01.03-.03,0,0,0,0,0,0,.02,0,.02-.01.03-.03,0,0,0-.01,0-.01,0,0,.02-.02.02-.03,0,0,.01,0,.01-.01,0,0,.02-.02.02-.02,0,0,.01,0,.01-.01.01,0,.02,0,.02-.02,0,0,.01,0,.01-.01,0,0,.01,0,.01,0h0c.28-.29.55-.56.81-.85.02,0,.02-.01.02-.03,0,0,0,0,0,0,.02,0,.02-.01.03-.03,0,0,0-.01,0-.01.02,0,.02-.01.02-.03,0,0,.01,0,.01-.01,0,0,.02-.02.02-.02,0,0,.01,0,.01-.01.01,0,.02,0,.02-.02,0,0,.01,0,.01-.01.01,0,.02,0,.02-.02.27-.27.55-.55.81-.84.02,0,.02-.01.02-.03,0,0,0,0,0,0,.02,0,.02-.01.03-.03,0,0,0-.01,0-.01.02,0,.02-.01.02-.03,0,0,.01,0,.01-.01,0,0,.02-.02.02-.02,0,0,.01,0,.01-.01.01,0,.02,0,.02-.02,0,0,.01,0,.01-.01.01,0,.02,0,.02-.02.27-.27.55-.55.81-.84.02,0,.02-.01.02-.03,0,0,0,0,0,0,.02,0,.02-.01.03-.03,0,0,0-.01,0-.01.02,0,.02-.01.02-.03,0,0,.01,0,.01-.01,0,0,.02-.02.02-.02,0,0,.01,0,.01-.01.01,0,.02,0,.02-.02,0,0,.01,0,.01-.01.01,0,.02,0,.02-.02.1-.1.2-.2.3-.3.06-.07.06-.1,0-.17-.1-.11-.21-.21-.32-.32,0-.02-.01-.03-.03-.03,0,0,0,0,0,0,0-.02-.01-.03-.03-.03,0,0,0,0,0,0,0-.02-.01-.03-.03-.03,0,0,0,0,0,0,0-.02-.01-.03-.03-.03,0,0,0,0,0,0,0-.02-.01-.03-.03-.03,0,0,0,0,0,0,0-.02-.01-.03-.03-.03,0,0,0,0,0,0,0-.02-.01-.03-.03-.03,0,0,0,0,0,0,0-.02-.01-.03-.03-.03-.03-.04-.07-.08-.1-.12-.64-.65-1.29-1.3-1.93-1.96-.01-.01-.03-.02-.04-.03,0-.02-.01-.03-.03-.03,0,0,0,0,0,0,0-.02-.01-.03-.03-.03,0,0,0,0,0,0,0-.02-.01-.03-.03-.03,0,0,0,0,0,0,0-.02-.01-.03-.03-.03,0,0,0,0,0,0,0-.02-.01-.03-.03-.03,0,0,0,0,0,0,0-.02-.01-.03-.03-.03,0,0,0,0,0,0,0-.02-.01-.03-.03-.03,0,0,0,0,0,0,0-.02-.01-.03-.03-.03-.12-.14-.25-.28-.39-.4-.01-.01-.02-.03-.03-.04,0-.02,0-.04,0-.05.07-.03.14-.02.21-.02.75,0,1.51,0,2.26,0,.06,0,.13,0,.19-.01.09.05.14.14.21.21.07.07.14.14.21.21,0,0,0,.01,0,.01h.01s0,.02.01.02c0,.01,0,.02.02.02,0,0,0,.01.01.01,0,0,.02.02.02.02,0,0,0,.01,0,.01,0,.02.01.02.03.03.14.17.29.32.45.48,0,0,0,.01,0,.01h.01s0,.02.02.02c0,.01,0,.02.02.02,0,0,0,.01.01.01,0,0,.02.02.02.02,0,0,.01.01.01.01,0,.02.01.02.03.03,0,0,0,0,0,0,0,.02.01.03.03.03.14.17.29.32.45.48,0,.01,0,.02.02.02,0,0,0,.01.01.01,0,0,.01.02.02.02,0,0,0,.01.01.01,0,.02,0,.02.02.03,0,0,0,0,0,0,0,.02.01.03.03.03.15.18.31.34.48.51.04.06.04.06.09,0,.03-.02.06-.04.08-.07.42-.41.84-.83,1.25-1.24.02-.02.04-.04.06-.07.01,0,.02,0,.02-.02,0,0,.01,0,.01-.01.01,0,.02,0,.02-.02,0,0,.01,0,.01-.01,0,0,.02-.02.02-.02,0,0,.01,0,.01-.01,0,0,.02-.02.02-.02,0,0,.01,0,.01-.01,0,0,.02-.02.02-.02,0,0,.01,0,.01-.01,0,0,.02-.02.02-.02,0,0,.01-.01.01-.01.02,0,.02,0,.02-.02,0,0,.01-.01.01-.01.02,0,.02-.01.03-.03,0,0,.01,0,.01,0,.02,0,.02-.01.03-.03,0,0,0,0,0,0,.02,0,.02-.01.03-.03,0,0,0,0,0,0,.02,0,.02-.01.03-.03,0,0,0,0,0,0,.02,0,.03-.01.03-.03,0,0,0,0,0,0,.01,0,.02,0,.03-.02.12-.12.25-.24.37-.36.05-.04.1-.09.15-.13.06,0,.13,0,.19,0,.73,0,1.46,0,2.19,0,.07,0,.14,0,.21.02,0,.02,0,.04,0,.05-.01.01-.02.03-.03.04-.04.03-.07.06-.11.09-.43.42-.86.84-1.29,1.27-.01.01-.02.03-.03.04-.02,0-.03.01-.03.03,0,0,0,0,0,0-.02,0-.03.01-.03.03,0,0,0,0,0,0-.02,0-.03.01-.03.03,0,0,0,0,0,0-.02,0-.03.01-.03.03,0,0,0,0,0,0-.02,0-.03.01-.03.03,0,0,0,0,0,0-.02,0-.03.01-.03.03,0,0,0,0,0,0-.02,0-.03.01-.03.03-.03.03-.06.05-.09.08-.53.52-1.05,1.04-1.58,1.55-.02.02-.03.04-.05.05-.02,0-.02,0-.02.02,0,0,0,0,0,0-.02,0-.03.01-.03.03,0,0,0,0,0,0-.03.01-.06.02-.05.07,0,.01.01.02.02.03,0,.02.01.03.03.03.1.13.22.25.34.37,0,.01,0,.02.02.02,0,0,0,.01.01.01,0,0,.02.02.02.02,0,0,0,.01.01.01,0,.02,0,.02.02.03,0,0,0,0,0,0,0,.02.01.03.03.03.13.16.27.3.41.44,0,0,0,.01,0,.01h.01s0,.02.01.02c0,.01,0,.02.02.02,0,0,0,.01.01.01,0,0,.02.02.02.03,0,0,0,.01,0,.01,0,0,.02.02.02.02.13.16.27.3.42.44,0,0,0,.01,0,.01h.01s0,.02.02.02c0,.01,0,.02.02.02,0,0,0,.01.01.01,0,0,.02.02.02.02,0,0,.01.01.01.01,0,.02,0,.02.03.03,0,0,0,0,0,0,0,.02.01.03.03.03.12.16.27.3.41.44,0,0,0,.01,0,.01h.01s0,.02.01.02c0,.01,0,.02.02.02,0,0,0,.01.01.01,0,0,.02.02.02.03,0,0,0,0,0,0,0,.01,0,.02.02.03.13.16.27.3.42.44,0,0,0,.01,0,.01h.01s0,.02.02.02c0,.01,0,.02.02.02,0,0,0,.01.01.01,0,0,.02.02.02.02,0,0,.01.01.01.01,0,.02.01.02.03.03,0,0,0,0,0,0,0,.02.01.03.03.03.13.16.27.3.41.44,0,0,0,.01,0,.01h.01s0,.02.01.02c0,.01,0,.02.02.02,0,0,0,.01.01.01,0,0,.02.02.02.03,0,0,0,0,0,0,0,.02.01.03.03.03.11.14.24.26.36.39.04.04.08.09.07.15-.08,0-.15,0-.23,0-.84,0-1.67,0-2.51,0-.04-.04-.08-.08-.12-.11,0-.02-.01-.03-.03-.03-.13-.17-.29-.32-.44-.47,0-.02-.01-.02-.03-.03,0,0,0,0,0,0,0-.02-.01-.03-.03-.03-.13-.17-.29-.32-.44-.47,0-.02-.01-.02-.03-.03,0,0,0,0,0,0,0-.02-.01-.03-.03-.03-.13-.17-.29-.32-.44-.47,0-.02-.01-.02-.03-.03,0,0,0,0,0,0,0-.02-.01-.03-.03-.03-.13-.17-.28-.32-.44-.47,0-.02-.01-.03-.03-.03,0,0,0,0,0,0,0-.02-.01-.03-.03-.03-.09-.12-.2-.23-.31-.33-.02-.03-.03-.03-.05,0-.14.12-.27.25-.39.4-.02,0-.03.01-.03.03,0,0,0,0,0,0-.02,0-.03.01-.03.03,0,0,0,0,0,0-.02,0-.03.01-.03.03,0,0,0,0,0,0-.02,0-.02,0-.03.03Z"/></g></svg>