<?xml version="1.0" encoding="UTF-8"?><svg id="Layer_1" xmlns="http://www.w3.org/2000/svg" viewBox="0 0 98.59 98.59"><defs><style>.cls-1{fill:#f5305f;}.cls-2{fill:#ffad00;}.cls-3{fill:#ffcd66;}.cls-4{fill:#ff8639;}.cls-5{fill:#36103d;}</style></defs><path class="cls-1" d="m77.02,84.73v6.16c0,3.4-2.76,6.16-6.16,6.16H27.73c-3.4,0-6.16-2.76-6.16-6.16v-6.16l6.16,6.16h43.13l6.16-6.16Z"/><path class="cls-5" d="m58.54,83.19h-18.49c-.85,0-1.54.69-1.54,1.54s.69,1.54,1.54,1.54h18.49c.85,0,1.54-.69,1.54-1.54s-.69-1.54-1.54-1.54Z"/><g><circle class="cls-2" cx="55.59" cy="16.4" r="3.27"/><path class="cls-2" d="m77.02,7.7v77.02l-6.16,6.16H27.73l-6.16-6.16V7.7c0-3.4,2.76-6.16,6.16-6.16h43.13c3.4,0,6.16,2.76,6.16,6.16Z"/><path class="cls-4" d="m77.02,6.63v77.02l-6.16,6.16H27.73l-6.16-6.16v-.39l.77.77h43.13l6.16-6.16V.85c0-.11,0-.23-.02-.34,3.05.37,5.41,2.97,5.41,6.12Z"/><g><circle class="cls-2" cx="4.62" cy="4.62" r="3.08"/><circle class="cls-2" cx="7.7" cy="26.19" r="3.08"/><circle class="cls-2" cx="4.62" cy="38.51" r="3.08"/><circle class="cls-2" cx="93.97" cy="4.62" r="3.08"/><circle class="cls-2" cx="93.97" cy="38.51" r="3.08"/><circle class="cls-2" cx="4.62" cy="93.97" r="3.08"/><circle class="cls-2" cx="7.7" cy="72.4" r="3.08"/><circle class="cls-2" cx="4.62" cy="60.08" r="3.08"/><circle class="cls-2" cx="93.97" cy="93.97" r="3.08"/><circle class="cls-2" cx="93.97" cy="60.08" r="3.08"/><circle class="cls-2" cx="90.89" cy="72.4" r="3.08"/><path class="cls-3" d="m49.29,29.27c11.06,0,20.03,8.97,20.03,20.03s-8.97,20.03-20.03,20.03-20.03-8.97-20.03-20.03,8.97-20.03,20.03-20.03Z"/></g><path class="cls-5" d="m46.21,9.24h6.16c.85,0,1.54-.69,1.54-1.54s-.69-1.54-1.54-1.54h-6.16c-.85,0-1.54.69-1.54,1.54s.69,1.54,1.54,1.54Z"/><path class="cls-5" d="m87.8,20.03c.85,0,1.54-.69,1.54-1.54v-7.06l2.64-2.64c.63.3,1.3.46,1.98.46,1.18,0,2.37-.45,3.27-1.35,1.8-1.8,1.8-4.73,0-6.53s-4.73-1.8-6.53,0c-1.42,1.42-1.7,3.53-.89,5.25l-3.09,3.09c-.29.29-.45.68-.45,1.09v6.16h-7.7V7.7c0-4.25-3.46-7.7-7.7-7.7H27.73c-4.25,0-7.7,3.46-7.7,7.7v9.24h-7.7v-6.16c0-.41-.16-.8-.45-1.09l-3.09-3.09c.81-1.72.53-3.83-.89-5.25C6.08-.45,3.15-.45,1.35,1.35-.45,3.16-.45,6.09,1.35,7.89c.9.9,2.08,1.35,3.27,1.35.68,0,1.35-.17,1.98-.46l2.64,2.64v7.06c0,.85.69,1.54,1.54,1.54h9.24v8.61l-3.53-3.53c-.29-.29-.68-.45-1.09-.45h-3.36c-.22-.63-.57-1.22-1.07-1.73-1.8-1.8-4.73-1.8-6.53,0s-1.8,4.73,0,6.53c.9.9,2.08,1.35,3.27,1.35s2.37-.45,3.27-1.35c.5-.5.85-1.1,1.07-1.73h2.72l5.26,5.26v7.97l-3.53-3.53c-.29-.29-.68-.45-1.09-.45h-6.44c-.22-.63-.57-1.22-1.07-1.73-1.8-1.8-4.73-1.8-6.53,0s-1.8,4.73,0,6.53c.9.9,2.08,1.35,3.27,1.35s2.37-.45,3.27-1.35c.5-.5.85-1.1,1.07-1.73h5.8l5.26,5.26v7.97l-5.26,5.26h-5.81c-.22-.63-.57-1.22-1.07-1.73-1.8-1.8-4.73-1.8-6.53,0s-1.8,4.73,0,6.53c.9.9,2.08,1.35,3.27,1.35s2.37-.45,3.27-1.35c.5-.5.85-1.1,1.07-1.73h6.44c.41,0,.8-.16,1.09-.45l3.53-3.53v7.97l-5.26,5.26h-2.73c-.22-.63-.57-1.22-1.07-1.73-1.8-1.8-4.73-1.8-6.53,0s-1.8,4.73,0,6.53c.9.9,2.08,1.35,3.27,1.35s2.37-.45,3.27-1.35c.5-.5.85-1.1,1.07-1.73h3.36c.41,0,.8-.16,1.09-.45l3.53-3.53v8.61h-9.24c-.85,0-1.54.69-1.54,1.54v7.06l-2.64,2.64c-1.72-.81-3.83-.53-5.25.89-1.8,1.8-1.8,4.73,0,6.53.9.9,2.08,1.35,3.27,1.35s2.37-.45,3.27-1.35c1.42-1.42,1.7-3.53.89-5.25l3.09-3.09c.29-.29.45-.68.45-1.09v-6.16h7.7v9.24c0,4.25,3.46,7.7,7.7,7.7h43.13c4.25,0,7.7-3.46,7.7-7.7v-9.24h7.7v6.16c0,.41.16.8.45,1.09l3.09,3.09c-.81,1.72-.53,3.83.89,5.25.9.9,2.08,1.35,3.27,1.35s2.37-.45,3.27-1.35c1.8-1.8,1.8-4.73,0-6.53-1.42-1.42-3.53-1.7-5.25-.89l-2.64-2.64v-7.06c0-.85-.69-1.54-1.54-1.54h-9.24v-8.61l3.53,3.53c.29.29.68.45,1.09.45h3.36c.22.63.57,1.22,1.07,1.73.9.9,2.08,1.35,3.27,1.35s2.37-.45,3.27-1.35c1.8-1.8,1.8-4.73,0-6.53s-4.73-1.8-6.53,0c-.5.5-.85,1.1-1.07,1.73h-2.72l-5.26-5.26v-7.97l3.53,3.53c.29.29.68.45,1.09.45h6.44c.22.63.57,1.22,1.07,1.73.9.9,2.08,1.35,3.27,1.35s2.37-.45,3.27-1.35c1.8-1.8,1.8-4.73,0-6.53s-4.73-1.8-6.53,0c-.5.5-.85,1.1-1.07,1.73h-5.81l-5.26-5.26v-7.97l5.26-5.26h5.81c.22.63.57,1.22,1.07,1.73.9.9,2.08,1.35,3.27,1.35s2.37-.45,3.27-1.35c1.8-1.8,1.8-4.73,0-6.53s-4.73-1.8-6.53,0c-.5.5-.85,1.1-1.07,1.73h-6.44c-.41,0-.8.16-1.09.45l-3.53,3.53v-7.97l5.26-5.26h2.73c.22.63.57,1.22,1.07,1.73.9.9,2.08,1.35,3.27,1.35s2.37-.45,3.27-1.35c1.8-1.8,1.8-4.73,0-6.53s-4.73-1.8-6.53,0c-.5.5-.85,1.1-1.07,1.73h-3.36c-.41,0-.8.16-1.09.45l-3.53,3.53v-8.61h9.24Zm5.07-16.49c.3-.3.69-.45,1.09-.45s.79.15,1.09.45c.6.6.6,1.58,0,2.18-.6.6-1.58.6-2.18,0-.6-.6-.6-1.58,0-2.18ZM3.53,5.71c-.6-.6-.6-1.58,0-2.18.3-.3.69-.45,1.09-.45s.79.15,1.09.45c.6.6.6,1.58,0,2.18-.6.6-1.58.6-2.18,0Zm5.26,21.57c-.6.6-1.58.6-2.18,0-.6-.6-.6-1.58,0-2.18.3-.3.69-.45,1.09-.45s.79.15,1.09.45c.6.6.6,1.58,0,2.18Zm-3.08,12.32c-.6.6-1.58.6-2.18,0-.6-.6-.6-1.58,0-2.18.3-.3.69-.45,1.09-.45s.79.15,1.09.45c.6.6.6,1.58,0,2.18Zm0,21.57c-.6.6-1.58.6-2.18,0-.6-.6-.6-1.58,0-2.18.3-.3.69-.45,1.09-.45s.79.15,1.09.45c.6.6.6,1.58,0,2.18Zm3.08,12.32c-.6.6-1.58.6-2.18,0-.6-.6-.6-1.58,0-2.18.3-.3.69-.45,1.09-.45s.79.15,1.09.45c.6.6.6,1.58,0,2.18Zm-3.08,21.57c-.6.6-1.58.6-2.18,0-.6-.6-.6-1.58,0-2.18.3-.3.69-.45,1.09-.45s.79.15,1.09.45c.6.6.6,1.58,0,2.18Zm89.35-2.18c.6.6.6,1.58,0,2.18-.6.6-1.58.6-2.18,0-.6-.6-.6-1.58,0-2.18.3-.3.69-.45,1.09-.45s.79.15,1.09.45Zm-5.26-21.57c.3-.3.69-.45,1.09-.45s.79.15,1.09.45c.6.6.6,1.58,0,2.18-.6.6-1.58.6-2.18,0-.6-.6-.6-1.58,0-2.18Zm3.08-12.32c.3-.3.69-.45,1.09-.45s.79.15,1.09.45c.6.6.6,1.58,0,2.18-.6.6-1.58.6-2.18,0-.6-.6-.6-1.58,0-2.18Zm0-21.57c.3-.3.69-.45,1.09-.45s.79.15,1.09.45c.6.6.6,1.58,0,2.18-.6.6-1.58.6-2.18,0-.6-.6-.6-1.58,0-2.18Zm-3.08-12.32c.3-.3.69-.45,1.09-.45s.79.15,1.09.45c.6.6.6,1.58,0,2.18-.6.6-1.58.6-2.18,0-.6-.6-.6-1.58,0-2.18ZM27.73,3.08h43.13c2.55,0,4.62,2.07,4.62,4.62v76.39l-5.26,5.26H28.36l-5.26-5.26V7.7c0-2.55,2.07-4.62,4.62-4.62h0Zm43.13,92.43H27.73c-2.55,0-4.62-2.07-4.62-4.62v-2.44l3.53,3.53c.29.29.68.45,1.09.45h43.13c.41,0,.8-.16,1.09-.45l3.53-3.53v2.44c0,2.55-2.07,4.62-4.62,4.62Z"/><path class="cls-5" d="m49.29,70.86c11.89,0,21.57-9.67,21.57-21.57s-9.67-21.57-21.57-21.57-21.57,9.67-21.57,21.57,9.67,21.57,21.57,21.57Zm0-40.05c10.19,0,18.49,8.29,18.49,18.49s-8.29,18.49-18.49,18.49-18.49-8.29-18.49-18.49,8.29-18.49,18.49-18.49Z"/><g><g><path class="cls-5" d="m51.93,47.18c.29,0,.53-.24.53-.53s-.24-.53-.53-.53h-4.22c-.29,0-.53.24-.53.53v6.33c0,.29.24.53.53.53s.53-.24.53-.53v-2.64h2.64c.29,0,.53-.24.53-.53s-.24-.53-.53-.53h-2.64v-2.11h3.69Z"/><path class="cls-5" d="m47.71,53.7c-.39,0-.71-.32-.71-.71v-6.33c0-.39.32-.71.71-.71h4.22c.39,0,.71.32.71.71s-.32.71-.71.71h-3.51v1.74h2.45c.39,0,.71.32.71.71s-.32.71-.71.71h-2.45v2.45c0,.39-.32.71-.71.71Zm0-7.39c-.19,0-.34.15-.34.34v6.33c0,.19.15.34.34.34s.34-.15.34-.34v-2.82h2.82c.19,0,.34-.15.34-.34s-.15-.34-.34-.34h-2.82v-2.48h3.88c.19,0,.34-.15.34-.34s-.15-.34-.34-.34h-4.22Z"/></g><g><path class="cls-5" d="m58.26,52.46h-2.11c-.87,0-1.58-.71-1.58-1.58v-2.11c0-.87.71-1.58,1.58-1.58h2.11c.29,0,.53-.24.53-.53s-.24-.53-.53-.53h-2.11c-1.46,0-2.64,1.18-2.64,2.64v2.11c0,1.46,1.18,2.64,2.64,2.64h2.11c.29,0,.53-.24.53-.53s-.24-.53-.53-.53Z"/><path class="cls-5" d="m58.26,53.7h-2.11c-1.56,0-2.82-1.27-2.82-2.82v-2.11c0-1.56,1.27-2.82,2.82-2.82h2.11c.39,0,.71.32.71.71s-.32.71-.71.71h-2.11c-.77,0-1.4.63-1.4,1.4v2.11c0,.77.63,1.4,1.4,1.4h2.11c.39,0,.71.32.71.71s-.32.71-.71.71Zm-2.11-7.39c-1.35,0-2.45,1.1-2.45,2.45v2.11c0,1.35,1.1,2.45,2.45,2.45h2.11c.19,0,.34-.15.34-.34s-.15-.34-.34-.34h-2.11c-.97,0-1.77-.79-1.77-1.77v-2.11c0-.97.79-1.77,1.77-1.77h2.11c.19,0,.34-.15.34-.34s-.15-.34-.34-.34h-2.11Z"/></g><g><path class="cls-5" d="m40.85,52.99v-4.59l3.25,4.88c.1.15.27.24.44.24.05,0,.1,0,.15-.02.22-.07.37-.27.37-.51v-6.33c0-.29-.24-.53-.53-.53s-.53.24-.53.53v4.59l-3.25-4.88c-.13-.19-.37-.28-.59-.21-.22.07-.37.27-.37.51v6.33c0,.29.24.53.53.53s.53-.24.53-.53Z"/><path class="cls-5" d="m44.54,53.7c-.24,0-.46-.12-.59-.32l-2.92-4.38v3.98c0,.39-.32.71-.71.71s-.71-.32-.71-.71v-6.33c0-.32.2-.59.5-.68.3-.09.62.02.8.29l2.92,4.38v-3.98c0-.39.32-.71.71-.71s.71.32.71.71v6.33c0,.31-.2.59-.5.68-.07.02-.14.03-.21.03Zm-3.88-5.9l3.59,5.38c.08.12.23.18.39.14.14-.04.24-.18.24-.33v-6.33c0-.19-.15-.34-.34-.34s-.34.15-.34.34v5.19l-3.59-5.38c-.09-.13-.24-.19-.39-.14-.15.04-.24.18-.24.33v6.33c0,.19.15.34.34.34s.34-.15.34-.34v-5.19Z"/></g><g><path class="cls-5" d="m57.59,56.82c-2.16,1.95-5.03,3.03-8.09,3.03s-5.93-1.08-8.09-3.03c-.22-.19-.55-.18-.75.04-.2.22-.18.55.04.75,2.35,2.13,5.48,3.3,8.8,3.3s6.44-1.17,8.8-3.3c.22-.2.23-.53.04-.75-.2-.22-.53-.23-.75-.04Z"/><path class="cls-5" d="m49.5,61.08c-3.37,0-6.53-1.19-8.92-3.35-.29-.26-.31-.71-.05-1,.26-.29.71-.31,1-.05,2.12,1.92,4.95,2.98,7.96,2.98s5.84-1.06,7.96-2.98h0c.29-.26.74-.24,1,.05.26.29.24.74-.05,1-2.39,2.16-5.55,3.35-8.92,3.35Zm-8.44-4.22c-.09,0-.19.04-.26.11-.13.14-.12.36.02.49,2.32,2.1,5.4,3.25,8.67,3.25s6.36-1.16,8.67-3.25c.14-.13.15-.35.02-.49-.13-.14-.35-.15-.49-.02-2.19,1.98-5.11,3.08-8.21,3.08s-6.02-1.09-8.21-3.08c-.07-.06-.15-.09-.23-.09Z"/></g><g><path class="cls-5" d="m44.89,55.27c-.2.22-.18.55.04.74,1.23,1.11,2.85,1.72,4.57,1.72s3.35-.61,4.58-1.72c.22-.2.23-.53.04-.75-.2-.22-.53-.23-.75-.04-1.03.93-2.4,1.45-3.87,1.45s-2.84-.51-3.87-1.45c-.21-.19-.55-.18-.74.04Z"/><path class="cls-5" d="m49.5,57.92c-1.77,0-3.44-.63-4.7-1.77-.14-.13-.22-.3-.23-.49,0-.19.06-.37.18-.51h0c.26-.29.71-.31,1-.05,1,.9,2.33,1.4,3.74,1.4s2.75-.5,3.74-1.4c.29-.26.74-.24,1,.05.26.29.24.74-.05,1-1.26,1.14-2.93,1.77-4.7,1.77Zm-4.48-2.52c-.06.07-.09.16-.09.25s.05.18.11.24c1.19,1.08,2.77,1.67,4.45,1.67s3.26-.59,4.45-1.67c.14-.13.15-.35.02-.49-.13-.14-.35-.15-.49-.02-1.06.96-2.48,1.49-3.99,1.49s-2.93-.53-3.99-1.49c-.14-.13-.36-.11-.49.03h0Z"/></g><g><path class="cls-5" d="m41.06,41.91c.13,0,.25-.05.35-.14,2.16-1.95,5.03-3.03,8.09-3.03s5.93,1.08,8.09,3.03c.22.19.55.18.75-.04.2-.22.18-.55-.04-.75-2.35-2.13-5.48-3.3-8.8-3.3s-6.44,1.17-8.8,3.3c-.22.2-.23.53-.04.75.1.11.25.17.39.17Z"/><path class="cls-5" d="m41.06,42.09c-.2,0-.39-.08-.53-.23-.26-.29-.24-.74.05-1.01,2.39-2.16,5.55-3.35,8.92-3.35s6.53,1.19,8.92,3.35c.29.26.31.71.05,1-.26.29-.71.31-1,.05-2.12-1.92-4.95-2.98-7.97-2.98s-5.84,1.06-7.96,2.98c-.13.12-.3.18-.48.18Zm8.44-4.22c-3.27,0-6.35,1.16-8.67,3.25-.14.13-.15.35-.02.49.12.13.35.14.49.02,2.19-1.98,5.11-3.08,8.21-3.08s6.02,1.09,8.21,3.08c.14.13.36.11.49-.02.13-.14.11-.36-.03-.49-2.32-2.1-5.4-3.25-8.67-3.25Z"/></g><g><path class="cls-5" d="m54.11,43.32c.2-.22.18-.55-.04-.75-1.23-1.11-2.85-1.72-4.58-1.72s-3.35.61-4.57,1.72c-.22.2-.23.53-.04.74.1.11.25.17.39.17.13,0,.25-.05.35-.14,1.03-.93,2.41-1.45,3.87-1.45s2.84.51,3.87,1.45c.22.19.55.18.75-.04Z"/><path class="cls-5" d="m45.28,43.67c-.2,0-.39-.09-.53-.23-.26-.29-.24-.74.05-1,1.26-1.14,2.93-1.77,4.7-1.77s3.44.63,4.7,1.77c.29.26.31.71.05,1h0c-.26.29-.71.31-1,.05-1-.9-2.33-1.4-3.74-1.4s-2.75.5-3.74,1.4c-.13.12-.3.18-.48.18Zm4.22-2.64c-1.68,0-3.26.59-4.45,1.67-.14.13-.15.35-.02.49.12.14.35.15.49.03,1.07-.96,2.48-1.49,3.99-1.49s2.93.53,3.99,1.49c.14.13.36.12.49-.02.13-.14.12-.36-.02-.49-1.19-1.08-2.77-1.67-4.45-1.67Z"/></g></g></g></svg>